HIERARCHY
ROOT Hips
{
	OFFSET 0.000000 0.000000 0.000000
	CHANNELS 6 Xposition Yposition Zposition Zrotation Xrotation Yrotation
	JOINT LeftUpLeg
	{
		OFFSET 4.065250 -3.907320 0.417110
		CHANNELS 3 Zrotation Xrotation Yrotation
		JOINT LeftLeg
		{
			OFFSET 0.000230 -18.482100 0.003670
			CHANNELS 3 Zrotation Xrotation Yrotation
			JOINT LeftFoot
			{
				OFFSET -0.001720 -15.289800 -0.026290
				CHANNELS 3 Zrotation Xrotation Yrotation
				JOINT LeftToeBase
				{
					OFFSET 0.367430 -3.191310 5.542870
					CHANNELS 3 Zrotation Xrotation Yrotation
					JOINT LeftToeBase2
					{
						OFFSET 0.087510 0.048490 1.367580
						CHANNELS 3 Zrotation Xrotation Yrotation
						JOINT LeftToeBase3
						{
							OFFSET 0.074840 0.067850 1.167070
						}
					}
				}
			}
		}
	}
	JOINT RightUpLeg
	{
		OFFSET -4.065260 -3.907310 0.417120
		CHANNELS 3 Zrotation Xrotation Yrotation
		JOINT RightLeg
		{
			OFFSET -0.000290 -18.482100 0.004400
			CHANNELS 3 Zrotation Xrotation Yrotation
			JOINT RightFoot
			{
				OFFSET 0.001600 -15.289800 -0.025690
				CHANNELS 3 Zrotation Xrotation Yrotation
				JOINT RightToeBase
				{
					OFFSET -0.354200 -3.191090 5.543860
					CHANNELS 3 Zrotation Xrotation Yrotation
					JOINT RightToeBase2
					{
						OFFSET -0.084240 0.048540 1.367780
						CHANNELS 3 Zrotation Xrotation Yrotation
						JOINT RightToeBase3
						{
							OFFSET -0.072050 0.067900 1.167250
						}
					}
				}
			}
		}
	}
	JOINT Spine
	{
		OFFSET 0.000010 4.465170 -0.102240
		CHANNELS 3 Zrotation Xrotation Yrotation
		JOINT Spine1
		{
			OFFSET 0.000010 4.462120 -0.182400
			CHANNELS 3 Zrotation Xrotation Yrotation
			JOINT Spine2
			{
				OFFSET 0.000000 4.379370 -0.881000
				CHANNELS 3 Zrotation Xrotation Yrotation
				JOINT Spine3
				{
					OFFSET 0.000010 4.682860 0.214140
					CHANNELS 3 Zrotation Xrotation Yrotation
					JOINT Neck
					{
						OFFSET 0.000000 1.769640 0.824540
						CHANNELS 3 Zrotation Xrotation Yrotation
						JOINT Head
						{
							OFFSET 0.000000 1.696100 0.931450
							CHANNELS 3 Zrotation Xrotation Yrotation
							JOINT Head_End
							{
								OFFSET 0.000010 7.837500 1.526030
							}
						}
					}
					JOINT LeftShoulder
					{
						OFFSET 1.193810 -0.758810 -0.027680
						CHANNELS 3 Zrotation Xrotation Yrotation
						JOINT LeftArm
						{
							OFFSET 5.187790 -0.000020 0.000010
							CHANNELS 3 Zrotation Xrotation Yrotation
							JOINT LeftForeArm
							{
								OFFSET 12.736400 -0.000040 0.000020
								CHANNELS 3 Zrotation Xrotation Yrotation
								JOINT LeftHand
								{
									OFFSET 9.214520 -0.000020 0.000010
									CHANNELS 3 Zrotation Xrotation Yrotation
								}
							}
						}
					}
					JOINT RightShoulder
					{
						OFFSET -1.193810 -0.758810 -0.027670
						CHANNELS 3 Zrotation Xrotation Yrotation
						JOINT RightArm
						{
							OFFSET -5.187790 0.000010 -0.000010
							CHANNELS 3 Zrotation Xrotation Yrotation
							JOINT RightForeArm
							{
								OFFSET -12.736400 0.000030 -0.000020
								CHANNELS 3 Zrotation Xrotation Yrotation
								JOINT RightHand
								{
									OFFSET -9.214520 0.000020 -0.000010
									CHANNELS 3 Zrotation Xrotation Yrotation
								}
							}
						}
					}
				}
			}
		}
	}
}
MOTION
Frames: 6
Frame Time: 0.016667
-0.000000 40.628899 0.000002 -0.290598 0.172336 0.000872 4.848860 2.554970 1.424590  -0.311328 15.402401 0.352161  -4.300311 -17.566402 2.275060  -0.000000 0.000000 -0.000000  -0.000000 0.000000 -0.000000   -4.461340 5.716722 -10.273600  -0.281548 12.039801 0.381129  1.617960 -17.190901 3.140460  0.000000 -0.000000 -0.000000  -0.000000 0.000000 -0.000000   1.258520 -0.548450 -0.493442  0.323343 1.608520 -0.184565  -0.031926 1.676310 -0.138449  -1.027380 4.158850 -0.196793  -0.651686 6.727061 16.311003  -7.064319 -16.741499 16.334600   -8.145268 1.924140 -3.256860  -64.126808 20.459404 -6.500970  0.386226 0.583609 -15.851299  9.543562 -16.657904 0.877407  6.362681 1.549620 1.953010  64.986900 1.517130 -0.147945  0.900025 -1.097700 30.699697  0.387626 -4.042360 -2.529180 
-0.032306 40.618198 0.133167 -0.265834 0.365787 0.121813 4.881960 2.651600 1.439840  -0.304780 15.155901 0.348741  -4.369890 -17.596300 2.129680  -0.000000 0.000000 -0.000000  -0.000000 0.000000 -0.000000   -4.401250 5.847910 -10.225400  -0.275448 11.805504 0.376894  1.569090 -17.268301 2.973511  0.000000 -0.000000 -0.000000  -0.000000 0.000000 -0.000000   1.273410 -0.538268 -0.495250  0.294730 1.601070 -0.183145  -0.091256 1.650310 -0.139927  -1.214230 4.088360 -0.193990  -0.351134 6.854750 14.669803  -7.094580 -16.816603 14.737306   -8.019271 1.904330 -3.149371  -63.979897 20.256901 -6.238911  0.381156 0.576659 -15.642400  9.384981 -16.437801 1.034790  6.594659 1.583790 2.095660  64.857910 1.789330 -0.058129  0.912160 -1.106110 31.011805  0.408077 -3.938330 -2.373560 
-0.066464 40.606300 0.271598 -0.247400 0.546087 0.234925 4.922340 2.780329 1.447580  -0.298436 14.900602 0.346679  -4.437910 -17.635204 1.991331  -0.000000 0.000000 -0.000000  -0.000000 0.000000 -0.000000   -4.326031 6.020760 -10.125300  -0.269153 11.535703 0.373766  1.506480 -17.337799 2.763391  0.000000 -0.000000 -0.000000  -0.000000 0.000000 -0.000000   1.282560 -0.502355 -0.492213  0.278440 1.597930 -0.180661  -0.125338 1.624930 -0.139972  -1.320570 4.008801 -0.189373  -0.365084 6.927820 12.896408  -6.707712 -16.879702 12.936707   -8.022902 1.871050 -3.047541  -63.801102 20.106302 -5.923211  0.379971 0.575090 -15.595301  9.255321 -16.314001 1.166970  6.681419 1.599030 2.172460  64.792999 2.067529 0.026911  0.921081 -1.112220 31.240404  0.687385 -3.633192 -2.311980 
-0.102780 40.592098 0.418380 -0.234759 0.725323 0.337301 4.970970 2.919919 1.444780  -0.292409 14.659206 0.345068  -4.506170 -17.699604 1.867951  -0.000000 0.000000 -0.000000  -0.000000 0.000000 -0.000000   -4.237910 6.207339 -9.974481  -0.262956 11.265102 0.371887  1.431020 -17.420799 2.513762  0.000000 -0.000000 -0.000000  -0.000000 0.000000 -0.000000   1.290070 -0.457132 -0.485098  0.267736 1.596410 -0.175807  -0.148365 1.599050 -0.138434  -1.391750 3.924290 -0.182510  -0.494846 6.956990 11.050211  -6.159934 -16.889400 11.025311   -8.078691 1.835430 -2.947931  -63.614811 19.985001 -5.577303  0.381927 0.577788 -15.676301  9.141641 -16.256800 1.260870  6.709260 1.609130 2.215370  64.761108 2.343709 0.107011  0.927051 -1.116330 31.394701  1.104188 -3.191473 -2.349060 
-0.141655 40.574402 0.573549 -0.232301 0.914067 0.422893 5.035389 3.047049 1.436930  -0.287387 14.462903 0.343920  -4.577331 -17.811399 1.760141  -0.000000 0.000000 -0.000000  -0.000000 0.000000 -0.000000   -4.131091 6.383729 -9.754502  -0.257349 11.020703 0.370356  1.336891 -17.534203 2.209983  0.000000 -0.000000 -0.000000  -0.000000 0.000000 -0.000000   1.301810 -0.413494 -0.473043  0.259850 1.595990 -0.168210  -0.168222 1.570900 -0.133358  -1.454270 3.835072 -0.170656  -0.623697 6.934601 9.210103  -5.608575 -16.794806 9.095826   -8.145360 1.806540 -2.850481  -63.431896 19.881001 -5.212036  0.386812 0.584384 -15.874600  9.041724 -16.365602 1.307560  6.727710 1.624900 2.243500  64.746109 2.605748 0.177365  0.930727 -1.118920 31.492393  1.563477 -2.657394 -2.533448 
-0.183163 40.552898 0.738114 -0.232487 1.117109 0.493777 5.106609 3.162259 1.403250  -0.283138 14.302501 0.343186  -4.649349 -17.965597 1.688831  -0.000000 0.000000 -0.000000  -0.000000 0.000000 -0.000000   -4.015401 6.541919 -9.483893  -0.252570 10.815103 0.369178  1.229531 -17.686399 1.870323  0.000000 -0.000000 -0.000000  -0.000000 0.000000 -0.000000   1.307430 -0.382145 -0.460546  0.253928 1.596190 -0.160861  -0.181798 1.547370 -0.127909  -1.494400 3.762781 -0.159153  -0.757156 6.858041 7.405748  -5.042735 -16.634602 7.190078   -8.221640 1.781701 -2.750571  -63.265007 19.781204 -4.847862  0.394293 0.594228 -16.171700  8.989583 -16.513700 1.335770  6.724470 1.641260 2.263950  64.742805 2.860848 0.249624  0.932766 -1.120320 31.553797  2.038026 -2.061966 -2.793068 
